<?xml version="1.0" encoding="utf-8"?><!-- Uploaded to: SVG Repo, www.svgrepo.com, Generator: SVG Repo Mixer Tools -->
<svg width="800px" height="800px" viewBox="0 0 24 24" xmlns="http://www.w3.org/2000/svg" id="double-up-sign" class="icon glyph"><path d="M2.13,10.49a1,1,0,0,1,.38-1.36l9-5,.11,0L11.81,4,12,4l.19,0,.19.06.11,0,9,5A1,1,0,0,1,21,11a1,1,0,0,1-.49-.13L12,6.14,3.49,10.87A1,1,0,0,1,3,11,1,1,0,0,1,2.13,10.49Zm19.36,7.64-9-5-.11,0L12.19,13,12,13l-.19,0-.19.06-.11,0-9,5A1,1,0,0,0,3,20a1,1,0,0,0,.49-.13L12,15.14l8.51,4.73A1,1,0,0,0,21,20a1,1,0,0,0,.49-1.87Z" style="fill:#231f20"></path></svg>